{"title":"KONY 2012 720p-H.264-MP4-AVC-AAC","uid":7083199,"size":446080176,"categoryP":"video","categoryS":"hd___movies","magnet":"?xt=urn:btih:03967b7fb576491acd5e4cac9a90ab5916438c82&amp;dn=KONY+2012+720p-H.264-MP4-AVC-AAC&amp;tr=udp%3A%2F%2Ftracker.openbittorrent.com%3A80&amp;tr=udp%3A%2F%2Fopen.demonii.com%3A1337&amp;tr=udp%3A%2F%2Ftracker.coppersurfer.tk%3A6969&amp;tr=udp%3A%2F%2Fexodus.desync.com%3A6969","seeders":1,"leechers":0,"uploader":"rndmfrd222","files":1,"time":1331105324,"description":"General\n\nFormat : MPEG-4\nFormat profile : Base Media / Version 2\nCodec ID : mp42\nFile size : 425 MiB\nDuration : 29mn 58s\nOverall bit rate mode : Variable\nOverall bit rate : 1 984 Kbps\n\nVideo\nID : 1\nFormat : AVC\nFormat/Info : Advanced Video Codec\nFormat profile : &lt;a class=&quot;__cf_email__&quot; href=&quot;/cdn-cgi/l/email-protection&quot; data-cfemail=&quot;2d65444a456d611e031c&quot;&gt;[email&amp;#160;protected]&lt;/a&gt;&lt;script cf-hash='f9e31' type=&quot;text/javascript&quot;&gt;\n/* &lt;![CDATA[ */!function(){try{var t=&quot;currentScript&quot;in document?document.currentScript:function(){for(var t=document.getElementsByTagName(&quot;script&quot;),e=t.length;e--;)if(t[e].getAttribute(&quot;cf-hash&quot;))return t[e]}();if(t&amp;&amp;t.previousSibling){var e,r,n,i,c=t.previousSibling,a=c.getAttribute(&quot;data-cfemail&quot;);if(a){for(e=&quot;&quot;,r=parseInt(a.substr(0,2),16),n=2;a.length-n;n+=2)i=parseInt(a.substr(n,2),16)^r,e+=String.fromCharCode(i);e=document.createTextNode(e),c.parentNode.replaceChild(e,c)}}}catch(u){}}();/* ]]&gt; */&lt;/script&gt;\nFormat settings, CABAC : Yes\nFormat settings, ReFrames : 1 frame\nCodec ID : avc1\nCodec ID/Info : Advanced Video Coding\nDuration : 29mn 58s\nBit rate : 1 842 Kbps\nMaximum bit rate : 9 081 Kbps\nWidth : 1 280 pixels\nHeight : 720 pixels\nDisplay aspect ratio : 16:9\nFrame rate mode : Constant\nFrame rate : 23.976 fps\nColor space : YUV\nChroma subsampling : 4:2:0\nBit depth : 8 bits\nScan type : Progressive\nBits/(Pixel*Frame) : 0.083\nStream size : 395 MiB (93%)\n\nAudio\nID : 2\nFormat : AAC\nFormat/Info : Advanced Audio Codec\nFormat profile : LC\nCodec ID : 40\nDuration : 29mn 58s\nBit rate mode : Variable\nBit rate : 140 Kbps\nMaximum bit rate : 212 Kbps\nChannel(s) : 2 channels\nChannel positions : Front: L R\nSampling rate : 44.1 KHz\nCompression mode : Lossy\nStream size : 30.1 MiB (7%)\n &lt;a href=&quot;\nhttp://s3.amazonaws.com/kony2012/kony-4.html&quot; rel=&quot;nofollow&quot; target=&quot;_NEW&quot;&gt;\nhttp://s3.amazonaws.com/kony2012/kony-4.html&lt;/a&gt;\n\nEnjoy :)","torrent":{"xt":"urn:btih:03967b7fb576491acd5e4cac9a90ab5916438c82","amp;dn":"KONY+2012+720p-H.264-MP4-AVC-AAC","amp;tr":["udp%3A%2F%2Ftracker.openbittorrent.com%3A80","udp%3A%2F%2Fopen.demonii.com%3A1337","udp%3A%2F%2Ftracker.coppersurfer.tk%3A6969","udp%3A%2F%2Fexodus.desync.com%3A6969"],"infoHash":"03967b7fb576491acd5e4cac9a90ab5916438c82","infoHashBuffer":{"type":"Buffer","data":[3,150,123,127,181,118,73,26,205,94,76,172,154,144,171,89,22,67,140,130]},"announce":[],"urlList":[]}}